<svg width="526" height="470" viewBox="0 0 526 470" fill="none" xmlns="http://www.w3.org/2000/svg">
<g clip-path="url(#clip0_2_19)">
<rect y="-0.000488281" width="426.121" height="667.304" rx="22.879" fill="url(#paint0_linear_2_19)" fill-opacity="0.8"/>
<path d="M-0.953911 537.656L118.684 667.781H339.371L109.628 402.289L416.588 3.81299H201.144L-7.62695 259.295L-0.953911 537.656Z" fill="#025440" fill-opacity="0.2"/>
<path d="M122.846 362.513C127.108 362.513 130.893 363.103 134.202 364.281C137.512 365.415 140.413 367.16 142.906 369.517L136.854 378.425C134.814 376.703 132.638 375.365 130.326 374.413C128.06 373.416 125.544 372.917 122.778 372.917C121.373 372.917 120.24 373.053 119.378 373.325C118.517 373.597 117.882 373.983 117.474 374.481C117.112 374.935 116.93 375.456 116.93 376.045C116.93 376.771 117.361 377.36 118.222 377.813C119.129 378.267 120.376 378.675 121.962 379.037L128.762 380.601C133.296 381.644 136.673 383.185 138.894 385.225C141.116 387.22 142.226 389.963 142.226 393.453C142.226 396.853 141.365 399.687 139.642 401.953C137.965 404.22 135.653 405.92 132.706 407.053C129.76 408.187 126.428 408.753 122.71 408.753C119.764 408.753 116.885 408.459 114.074 407.869C111.309 407.28 108.77 406.441 106.458 405.353C104.146 404.22 102.152 402.883 100.474 401.341L106.458 392.161C107.682 393.34 109.178 394.405 110.946 395.357C112.714 396.264 114.596 396.989 116.59 397.533C118.585 398.077 120.512 398.349 122.37 398.349C123.685 398.349 124.75 398.236 125.566 398.009C126.428 397.737 127.04 397.375 127.402 396.921C127.765 396.468 127.946 395.924 127.946 395.289C127.946 394.519 127.652 393.907 127.062 393.453C126.473 392.955 125.362 392.524 123.73 392.161L116.25 390.461C113.802 389.917 111.536 389.169 109.45 388.217C107.365 387.265 105.688 385.951 104.418 384.273C103.194 382.551 102.582 380.307 102.582 377.541C102.582 374.595 103.376 371.988 104.962 369.721C106.549 367.455 108.861 365.687 111.898 364.417C114.936 363.148 118.585 362.513 122.846 362.513ZM164.529 408.753C160.63 408.753 157.253 408.073 154.397 406.713C151.586 405.308 149.41 403.291 147.869 400.661C146.373 398.032 145.625 394.836 145.625 391.073C145.625 387.311 146.395 384.115 147.937 381.485C149.478 378.856 151.631 376.861 154.397 375.501C157.162 374.096 160.358 373.393 163.985 373.393C167.702 373.393 170.853 374.096 173.437 375.501C176.066 376.861 178.061 378.765 179.421 381.213C180.826 383.661 181.529 386.517 181.529 389.781C181.529 390.552 181.483 391.323 181.393 392.093C181.347 392.864 181.279 393.521 181.189 394.065H154.465V388.081H175.205L168.677 390.597C168.677 388.013 168.314 386.064 167.589 384.749C166.909 383.389 165.707 382.709 163.985 382.709C162.806 382.709 161.809 382.981 160.993 383.525C160.222 384.069 159.633 384.976 159.225 386.245C158.862 387.515 158.681 389.192 158.681 391.277C158.681 393.363 158.907 395.017 159.361 396.241C159.859 397.42 160.539 398.236 161.401 398.689C162.262 399.143 163.35 399.369 164.665 399.369C166.115 399.369 167.249 399.075 168.065 398.485C168.881 397.896 169.47 397.08 169.833 396.037L180.849 399.301C180.305 401.387 179.194 403.132 177.517 404.537C175.885 405.943 173.935 407.008 171.669 407.733C169.402 408.413 167.022 408.753 164.529 408.753ZM186.261 408.073V374.073H198.637L199.249 387.197L197.821 385.701C198.184 383.072 198.932 380.851 200.065 379.037C201.198 377.179 202.649 375.773 204.417 374.821C206.23 373.869 208.316 373.393 210.673 373.393C212.985 373.393 214.957 373.847 216.589 374.753C218.266 375.615 219.558 376.929 220.465 378.697C221.372 380.42 221.825 382.551 221.825 385.089V408.073H208.089V388.625C208.089 386.721 207.772 385.429 207.137 384.749C206.548 384.024 205.686 383.661 204.553 383.661C203.692 383.661 202.898 383.888 202.173 384.341C201.493 384.749 200.949 385.429 200.541 386.381C200.178 387.333 199.997 388.58 199.997 390.121V408.073H186.261ZM240.364 408.753C237.599 408.753 235.196 408.073 233.156 406.713C231.161 405.308 229.62 403.291 228.532 400.661C227.489 398.032 226.968 394.881 226.968 391.209C226.968 387.447 227.512 384.251 228.6 381.621C229.688 378.947 231.252 376.907 233.292 375.501C235.377 374.096 237.803 373.393 240.568 373.393C243.787 373.393 246.303 374.413 248.116 376.453C249.929 378.448 251.085 381.009 251.584 384.137L250.36 385.837V360.065H264.096V408.073H251.72L250.904 395.357L252.468 396.921C252.196 399.233 251.516 401.296 250.428 403.109C249.385 404.877 248.003 406.26 246.28 407.257C244.603 408.255 242.631 408.753 240.364 408.753ZM245.668 398.961C246.665 398.961 247.504 398.667 248.184 398.077C248.864 397.488 249.385 396.604 249.748 395.425C250.156 394.247 250.36 392.773 250.36 391.005C250.36 389.328 250.179 387.923 249.816 386.789C249.499 385.611 248.977 384.727 248.252 384.137C247.572 383.548 246.711 383.253 245.668 383.253C244.172 383.253 242.971 383.843 242.064 385.021C241.203 386.155 240.772 388.172 240.772 391.073C240.772 393.975 241.203 396.015 242.064 397.193C242.925 398.372 244.127 398.961 245.668 398.961ZM306.9 374.073L295.816 406.033C294.456 410.113 292.914 413.355 291.192 415.757C289.514 418.205 287.52 419.973 285.208 421.061C282.896 422.149 280.085 422.693 276.776 422.693C274.736 422.693 272.877 422.489 271.2 422.081C269.522 421.673 268.072 421.129 266.848 420.449L269.432 411.541C270.202 411.995 271.018 412.335 271.88 412.561C272.786 412.788 273.988 412.901 275.484 412.901C276.889 412.901 277.977 412.72 278.748 412.357C279.518 411.995 280.085 411.337 280.448 410.385L280.924 409.093L276.844 399.437L266.916 374.073H281.944L286.024 392.501L287.452 400.049L289.152 392.297L293.368 374.073H306.9ZM311.81 395.153C314.258 395.153 316.139 395.743 317.454 396.921C318.769 398.1 319.426 399.755 319.426 401.885C319.426 404.016 318.769 405.671 317.454 406.849C316.139 408.028 314.258 408.617 311.81 408.617C309.453 408.617 307.594 408.028 306.234 406.849C304.874 405.671 304.194 404.016 304.194 401.885C304.194 399.755 304.874 398.1 306.234 396.921C307.594 395.743 309.453 395.153 311.81 395.153Z" fill="#FFFEFD"/>
<path d="M81.0292 -1.69037L-19.0664 160.153L1.73269 -11.4399L81.0292 -1.69037Z" fill="#025440" fill-opacity="0.2"/>
<path d="M213.537 51.4771L224.977 40.0376L235.939 51.4771H213.537Z" fill="#0D1321"/>
<path d="M54.2979 115.116C56.071 115.116 57.4495 115.608 58.4333 116.592C59.4285 117.564 59.9261 118.96 59.9261 120.779C59.9261 122.598 59.4285 123.999 58.4333 124.983C57.4495 125.955 56.071 126.441 54.2979 126.441H50.2998V115.116H54.2979ZM54.2979 124.88C55.499 124.88 56.4142 124.525 57.0434 123.816C57.684 123.095 58.0043 122.083 58.0043 120.779C58.0043 119.475 57.684 118.468 57.0434 117.759C56.4142 117.038 55.499 116.678 54.2979 116.678H52.1358V124.88H54.2979ZM65.8623 126.613C65.0044 126.613 64.2494 126.436 63.5973 126.081C62.9453 125.726 62.4362 125.217 62.0701 124.554C61.7155 123.879 61.5382 123.078 61.5382 122.152C61.5382 121.225 61.7155 120.43 62.0701 119.766C62.4362 119.092 62.9395 118.577 63.5801 118.222C64.2208 117.868 64.9472 117.69 65.7594 117.69C66.5945 117.69 67.3037 117.862 67.8871 118.205C68.4705 118.548 68.9167 119.017 69.2255 119.612C69.5344 120.207 69.6888 120.882 69.6888 121.637C69.6888 121.843 69.6831 122.037 69.6717 122.22C69.6602 122.403 69.6431 122.563 69.6202 122.701H62.7222V121.294H68.8137L67.9043 121.568C67.9043 120.79 67.7098 120.195 67.3209 119.784C66.9319 119.36 66.4 119.149 65.7251 119.149C65.2332 119.149 64.8042 119.263 64.4381 119.492C64.072 119.721 63.7918 120.064 63.5973 120.521C63.4028 120.968 63.3056 121.517 63.3056 122.169C63.3056 122.809 63.4086 123.353 63.6145 123.799C63.8204 124.245 64.1121 124.582 64.4896 124.811C64.8671 125.04 65.3132 125.154 65.828 125.154C66.4 125.154 66.8633 125.046 67.2179 124.828C67.5725 124.611 67.8528 124.308 68.0587 123.919L69.5173 124.605C69.3113 125.017 69.0311 125.378 68.6764 125.686C68.3333 125.984 67.9214 126.213 67.441 126.373C66.9605 126.533 66.4343 126.613 65.8623 126.613ZM76.3011 126.613C75.7978 126.613 75.3345 126.516 74.9112 126.321C74.4994 126.127 74.1505 125.858 73.8645 125.515C73.5785 125.16 73.3669 124.766 73.2296 124.331L73.4527 124.039L73.3154 126.441H71.7024V114.001H73.5385V120.024L73.3326 119.732C73.5499 119.137 73.9217 118.651 74.4479 118.274C74.9741 117.885 75.609 117.69 76.3526 117.69C77.039 117.69 77.6681 117.868 78.2401 118.222C78.8235 118.577 79.2811 119.086 79.6128 119.749C79.9446 120.413 80.1105 121.219 80.1105 122.169C80.1105 123.095 79.9389 123.89 79.5957 124.554C79.2639 125.217 78.8064 125.726 78.2229 126.081C77.651 126.436 77.0104 126.613 76.3011 126.613ZM75.9064 125.137C76.65 125.137 77.2277 124.874 77.6395 124.348C78.0628 123.81 78.2744 123.078 78.2744 122.152C78.2744 121.225 78.0685 120.499 77.6567 119.972C77.2449 119.446 76.6672 119.183 75.9236 119.183C75.4431 119.183 75.0256 119.309 74.671 119.561C74.3164 119.801 74.0361 120.144 73.8302 120.59C73.6357 121.036 73.5385 121.568 73.5385 122.186C73.5385 122.792 73.6357 123.318 73.8302 123.765C74.0247 124.199 74.2992 124.537 74.6538 124.777C75.0199 125.017 75.4374 125.137 75.9064 125.137ZM83.082 116.42C82.6816 116.42 82.3728 116.323 82.1554 116.129C81.9495 115.923 81.8466 115.637 81.8466 115.271C81.8466 114.905 81.9495 114.624 82.1554 114.43C82.3728 114.235 82.6816 114.138 83.082 114.138C83.471 114.138 83.7684 114.235 83.9743 114.43C84.1917 114.624 84.3003 114.905 84.3003 115.271C84.3003 115.637 84.1917 115.923 83.9743 116.129C83.7684 116.323 83.471 116.42 83.082 116.42ZM83.9915 117.862V126.441H82.1554V117.862H83.9915ZM89.0644 115.339V123.868C89.0644 124.291 89.173 124.6 89.3904 124.794C89.6192 124.989 89.9223 125.086 90.2998 125.086C90.6087 125.086 90.8775 125.04 91.1063 124.949C91.3351 124.846 91.5467 124.708 91.7412 124.537L92.153 125.875C91.8899 126.104 91.5639 126.287 91.1749 126.424C90.7974 126.55 90.3742 126.613 89.9052 126.613C89.4133 126.613 88.9614 126.533 88.5496 126.373C88.1378 126.213 87.8175 125.955 87.5887 125.601C87.3599 125.235 87.2398 124.76 87.2283 124.176V115.854L89.0644 115.339ZM92.0158 117.862V119.303H85.581V117.862H92.0158Z" fill="white"/>
<path d="M190.604 161.613V87.6567C190.604 80.261 193.855 74.21 197.827 74.21H251.999C255.972 74.21 259.222 80.261 259.222 87.6567V161.613C259.222 169.009 255.972 175.06 251.999 175.06H197.827C193.855 175.06 190.604 169.009 190.604 161.613Z" fill="#EDC482"/>
<path d="M259.222 114.804V108.223H237.553C235.567 108.223 233.942 105.262 233.942 101.643C233.942 98.0234 235.567 95.0621 237.553 95.0621H239.359V88.4814H237.553C233.581 88.4814 230.33 94.404 230.33 101.643C230.33 108.881 233.581 114.804 237.553 114.804H242.97V134.546H237.553C232.497 134.546 228.525 141.785 228.525 150.997C228.525 160.21 232.497 167.449 237.553 167.449H241.165V160.868H237.553C234.484 160.868 232.136 156.591 232.136 150.997C232.136 145.404 234.484 141.127 237.553 141.127H259.222V134.546H246.582V114.804H259.222ZM212.273 134.546H206.856V114.804H212.273C216.246 114.804 219.496 108.881 219.496 101.643C219.496 94.404 216.246 88.4814 212.273 88.4814H206.856V95.0621H212.273C214.259 95.0621 215.885 98.0234 215.885 101.643C215.885 105.262 214.259 108.223 212.273 108.223H190.604V114.804H203.245V134.546H190.604V141.127H212.273C215.343 141.127 217.69 145.404 217.69 150.997C217.69 156.591 215.343 160.868 212.273 160.868H208.662V167.449H212.273C217.329 167.449 221.302 160.21 221.302 150.997C221.302 141.785 217.329 134.546 212.273 134.546Z" fill="#D5BF83"/>
<path d="M322.533 148.42C321.623 148.052 320.973 147.229 320.821 146.255C320.713 145.691 320.821 145.302 321.688 143.742C324.938 137.894 326.606 131.288 326.52 124.596C326.606 118.098 325.025 111.752 321.905 106.055C321.45 105.102 321.038 104.193 320.691 103.218C320.821 102.395 321.233 101.637 321.905 101.182C322.88 100.662 324.071 100.771 324.96 101.377C325.566 102.157 326.086 102.936 326.52 103.846C328.851 108.31 330.439 113.123 331.221 118.098C331.719 122.018 331.784 126.003 331.416 129.945C330.745 135.014 329.25 139.908 326.953 144.478C325.566 147.251 324.786 148.42 323.963 148.42H322.533V148.42ZM313.087 143.634C311.852 143.287 311.072 142.031 311.332 140.775C311.332 140.515 312.003 139.324 312.61 138.111C315.166 133.194 316.271 127.649 315.773 122.126C315.47 118.163 314.322 114.307 312.437 110.82C311.072 108.091 310.985 107.658 311.787 106.489C312.74 105.427 314.322 105.276 315.491 106.185C317.051 108.481 318.286 110.994 319.196 113.636C321.97 121.845 321.536 130.79 317.983 138.674C316.163 142.767 314.885 144.089 313.087 143.526V143.634V143.634ZM303.337 138.804C302.951 138.631 302.609 138.374 302.335 138.051C302.061 137.729 301.863 137.35 301.755 136.941C301.755 136.508 301.755 135.945 302.73 134.212C304.318 131.333 305.151 128.1 305.151 124.812C305.151 121.525 304.318 118.291 302.73 115.412C301.322 112.683 301.322 112.12 302.47 111.08C302.882 110.604 303.488 110.366 304.138 110.452C305.525 110.452 306.305 111.124 307.475 113.571C309.317 116.952 310.271 120.745 310.248 124.596C310.335 128.516 309.382 132.414 307.497 135.858C306.327 138.132 305.742 138.674 304.572 138.869C304.16 138.912 303.727 138.869 303.337 138.674V138.804V138.804ZM294.215 134.19C293.5 133.844 292.937 133.259 292.655 132.501C292.439 131.743 292.655 131.093 293.522 129.707C294.605 128.234 295.125 126.415 295.017 124.596C295.169 122.754 294.67 120.935 293.609 119.419C293.249 118.873 292.93 118.301 292.655 117.708C292.417 116.343 293.327 115.044 294.822 114.784C295.992 114.567 296.815 115.066 297.899 116.712C299.436 119.05 300.255 121.787 300.255 124.585C300.255 127.383 299.436 130.119 297.899 132.458C296.794 134.125 295.537 134.624 294.237 134.19H294.215V134.19Z" fill="#EAFFFF"/>
</g>
<g filter="url(#filter0_d_2_19)">
<circle cx="436" cy="291" r="51" fill="white"/>
</g>
<path d="M436.139 254.769C414.343 254.769 396.51 271.467 396.51 291.876C396.51 312.285 414.343 328.983 436.139 328.983C457.934 328.983 475.767 312.285 475.767 291.876C475.767 271.467 457.934 254.769 436.139 254.769ZM436.139 263.015C442.963 263.015 449.348 265.283 454.632 268.787L411.481 309.193C407.738 304.245 405.316 298.267 405.316 291.876C405.316 276.003 419.186 263.015 436.139 263.015ZM436.139 320.737C429.314 320.737 422.929 318.47 417.645 314.965L460.796 274.56C464.539 279.507 466.961 285.486 466.961 291.876C466.961 307.75 453.091 320.737 436.139 320.737Z" fill="#F7685B"/>
<defs>
<filter id="filter0_d_2_19" x="346.868" y="207.588" width="178.263" height="178.263" filterUnits="userSpaceOnUse" color-interpolation-filters="sRGB">
<feFlood flood-opacity="0" result="BackgroundImageFix"/>
<feColorMatrix in="SourceAlpha" type="matrix" values="0 0 0 0 0 0 0 0 0 0 0 0 0 0 0 0 0 0 127 0" result="hardAlpha"/>
<feOffset dy="5.71975"/>
<feGaussianBlur stdDeviation="19.0658"/>
<feComposite in2="hardAlpha" operator="out"/>
<feColorMatrix type="matrix" values="0 0 0 0 0.835294 0 0 0 0 0 0 0 0 0 0 0 0 0 0.2 0"/>
<feBlend mode="normal" in2="BackgroundImageFix" result="effect1_dropShadow_2_19"/>
<feBlend mode="normal" in="SourceGraphic" in2="effect1_dropShadow_2_19" result="shape"/>
</filter>
<linearGradient id="paint0_linear_2_19" x1="213.061" y1="-0.000488281" x2="213.061" y2="667.304" gradientUnits="userSpaceOnUse">
<stop stop-color="#058868"/>
<stop offset="1" stop-color="#058868" stop-opacity="0.55"/>
</linearGradient>
<clipPath id="clip0_2_19">
<rect width="426" height="470" fill="white"/>
</clipPath>
</defs>
</svg>
