<svg width="24" height="24" viewBox="0 0 24 24" fill="none" xmlns="http://www.w3.org/2000/svg">
<path d="M12.4155 0.125615C12.2924 0.0437022 12.1479 0 12 0C11.8521 0 11.7076 0.0437022 11.5845 0.125615L0.3345 7.62574C0.20062 7.71501 0.0990016 7.84497 0.0446537 7.99643C-0.00969416 8.14789 -0.0138893 8.31281 0.032688 8.46684C0.0792652 8.62087 0.174145 8.75583 0.303313 8.85179C0.432481 8.94776 0.589087 8.99963 0.75 8.99976H3.5625V19.4999H2.25C2.05109 19.4999 1.86032 19.5789 1.71967 19.7196C1.57902 19.8603 1.5 20.051 1.5 20.2499C1.5 20.4489 1.57902 20.6396 1.71967 20.7803C1.86032 20.9209 2.05109 21 2.25 21H21.75C21.9489 21 22.1397 20.9209 22.2803 20.7803C22.421 20.6396 22.5 20.4489 22.5 20.2499C22.5 20.051 22.421 19.8603 22.2803 19.7196C22.1397 19.5789 21.9489 19.4999 21.75 19.4999H20.4375V8.99976H23.25C23.4109 8.99963 23.5675 8.94776 23.6967 8.85179C23.8259 8.75583 23.9207 8.62087 23.9673 8.46684C24.0139 8.31281 24.0097 8.14789 23.9553 7.99643C23.901 7.84497 23.7994 7.71501 23.6655 7.62574L12.4155 0.125615V0.125615ZM18.5625 8.99976V19.4999H16.6875V8.99976H18.5625ZM14.8125 8.99976V19.4999H12.9375V8.99976H14.8125ZM11.0625 8.99976V19.4999H9.1875V8.99976H11.0625ZM7.3125 8.99976V19.4999H5.4375V8.99976H7.3125ZM12 5.99971C11.6022 5.99971 11.2206 5.84167 10.9393 5.56036C10.658 5.27905 10.5 4.89752 10.5 4.49968C10.5 4.10185 10.658 3.72032 10.9393 3.43901C11.2206 3.1577 11.6022 2.99966 12 2.99966C12.3978 2.99966 12.7794 3.1577 13.0607 3.43901C13.342 3.72032 13.5 4.10185 13.5 4.49968C13.5 4.89752 13.342 5.27905 13.0607 5.56036C12.7794 5.84167 12.3978 5.99971 12 5.99971V5.99971ZM0.75 22.5C0.551088 22.5 0.360322 22.579 0.21967 22.7196C0.0790176 22.8603 0 23.0511 0 23.25C0 23.4489 0.0790176 23.6397 0.21967 23.7803C0.360322 23.921 0.551088 24 0.75 24H23.25C23.4489 24 23.6397 23.921 23.7803 23.7803C23.921 23.6397 24 23.4489 24 23.25C24 23.0511 23.921 22.8603 23.7803 22.7196C23.6397 22.579 23.4489 22.5 23.25 22.5H0.75Z" fill="white"/>
</svg>
