<svg width="102" height="30" viewBox="0 0 102 30" fill="none" xmlns="http://www.w3.org/2000/svg">
<path d="M10.592 1.56C12.5547 1.56 14.2827 1.86933 15.776 2.488C17.2907 3.08533 18.6027 3.97067 19.712 5.144L17.056 8.696C16.1387 7.736 15.1467 7.02133 14.08 6.552C13.0347 6.06133 11.84 5.816 10.496 5.816C9.70667 5.816 9.06667 5.90133 8.576 6.072C8.08533 6.24267 7.73333 6.47733 7.52 6.776C7.30667 7.07467 7.2 7.416 7.2 7.8C7.2 8.248 7.40267 8.632 7.808 8.952C8.23467 9.25067 8.91733 9.50667 9.856 9.72L13.408 10.52C15.52 11.0107 17.0667 11.7253 18.048 12.664C19.0293 13.6027 19.52 14.8507 19.52 16.408C19.52 17.9013 19.136 19.1707 18.368 20.216C17.6 21.24 16.544 22.0187 15.2 22.552C13.856 23.064 12.32 23.32 10.592 23.32C9.184 23.32 7.84 23.1707 6.56 22.872C5.28 22.552 4.128 22.104 3.104 21.528C2.08 20.952 1.216 20.2907 0.512 19.544L3.168 15.864C3.70133 16.4827 4.352 17.0373 5.12 17.528C5.90933 17.9973 6.76267 18.3707 7.68 18.648C8.61867 18.9253 9.568 19.064 10.528 19.064C11.2747 19.064 11.8933 18.9893 12.384 18.84C12.896 18.6907 13.2693 18.4667 13.504 18.168C13.7387 17.8693 13.856 17.5173 13.856 17.112C13.856 16.664 13.696 16.2907 13.376 15.992C13.056 15.672 12.448 15.4053 11.552 15.192L7.648 14.328C6.45333 14.0507 5.38667 13.688 4.448 13.24C3.53067 12.7707 2.80533 12.152 2.272 11.384C1.73867 10.5947 1.472 9.61333 1.472 8.44C1.472 7.11733 1.83467 5.944 2.56 4.92C3.28533 3.87467 4.33067 3.05333 5.696 2.456C7.06133 1.85867 8.69333 1.56 10.592 1.56ZM30.0799 23.32C28.3093 23.32 26.7733 22.9893 25.4719 22.328C24.1919 21.6667 23.1999 20.7173 22.4959 19.48C21.7919 18.2427 21.4399 16.7493 21.4399 15C21.4399 13.2507 21.7919 11.7573 22.4959 10.52C23.1999 9.28267 24.1813 8.33333 25.4399 7.672C26.7199 7.01067 28.1813 6.68 29.8239 6.68C31.5093 6.68 32.9386 7.01067 34.1119 7.672C35.3066 8.312 36.2133 9.208 36.8319 10.36C37.4506 11.4907 37.7599 12.792 37.7599 14.264C37.7599 14.648 37.7493 15.032 37.7279 15.416C37.7066 15.8 37.6746 16.12 37.6319 16.376H24.9599V13.464H35.2319L32.6399 14.456C32.6399 13.176 32.4053 12.1947 31.9359 11.512C31.4879 10.8293 30.7839 10.488 29.8239 10.488C29.1413 10.488 28.5546 10.648 28.0639 10.968C27.5946 11.288 27.2319 11.7893 26.9759 12.472C26.7413 13.1547 26.6239 14.0293 26.6239 15.096C26.6239 16.1413 26.7626 16.9947 27.0399 17.656C27.3173 18.296 27.7119 18.7653 28.2239 19.064C28.7359 19.3413 29.3546 19.48 30.0799 19.48C30.8906 19.48 31.5306 19.32 31.9999 19C32.4906 18.68 32.8533 18.232 33.0879 17.656L37.4399 19.096C37.1413 20.0133 36.6186 20.792 35.8719 21.432C35.1466 22.0507 34.2719 22.52 33.2479 22.84C32.2453 23.16 31.1893 23.32 30.0799 23.32ZM40.4981 23V7H45.3621L45.6501 12.504L45.0421 11.896C45.2555 10.744 45.6288 9.784 46.1621 9.016C46.7168 8.248 47.3995 7.672 48.2101 7.288C49.0421 6.88267 49.9701 6.68 50.9941 6.68C52.1035 6.68 53.0635 6.89333 53.8741 7.32C54.7061 7.74667 55.3568 8.376 55.8261 9.208C56.2955 10.04 56.5301 11.0853 56.5301 12.344V23H51.0901V13.784C51.0901 12.6747 50.8768 11.9067 50.4501 11.48C50.0235 11.0533 49.4795 10.84 48.8181 10.84C48.3061 10.84 47.8261 10.968 47.3781 11.224C46.9301 11.4587 46.5781 11.8427 46.3221 12.376C46.0661 12.9093 45.9381 13.624 45.9381 14.52V23H40.4981ZM65.9248 23.32C64.6022 23.32 63.4395 23 62.4368 22.36C61.4555 21.6987 60.6875 20.7493 60.1328 19.512C59.5995 18.2747 59.3328 16.792 59.3328 15.064C59.3328 13.272 59.6102 11.7573 60.1648 10.52C60.7408 9.28267 61.5302 8.33333 62.5328 7.672C63.5568 7.01067 64.7302 6.68 66.0528 6.68C67.5035 6.68 68.6662 7.128 69.5408 8.024C70.4368 8.89867 71.0128 10.0187 71.2688 11.384L70.7568 12.056V0.216H76.1968V23H71.3328L70.9808 17.56L71.6208 18.04C71.4928 19.1067 71.1622 20.0347 70.6288 20.824C70.1168 21.6133 69.4555 22.232 68.6448 22.68C67.8555 23.1067 66.9488 23.32 65.9248 23.32ZM67.8128 19.32C68.4315 19.32 68.9542 19.16 69.3808 18.84C69.8288 18.4987 70.1702 17.9973 70.4048 17.336C70.6395 16.6747 70.7568 15.864 70.7568 14.904C70.7568 14.008 70.6395 13.2507 70.4048 12.632C70.1915 11.992 69.8608 11.512 69.4128 11.192C68.9862 10.8507 68.4635 10.68 67.8448 10.68C66.9062 10.68 66.1595 11.032 65.6048 11.736C65.0715 12.4187 64.8048 13.5067 64.8048 15C64.8048 16.4933 65.0715 17.592 65.6048 18.296C66.1382 18.9787 66.8742 19.32 67.8128 19.32ZM95.8903 7L90.0663 23C89.469 24.6853 88.8183 26.0293 88.1143 27.032C87.4103 28.0347 86.5783 28.76 85.6183 29.208C84.6583 29.656 83.5063 29.88 82.1623 29.88C81.2663 29.88 80.445 29.784 79.6983 29.592C78.9516 29.4 78.301 29.1333 77.7463 28.792L78.8343 25.112C79.2183 25.3893 79.6236 25.5813 80.0503 25.688C80.477 25.816 81.021 25.88 81.6823 25.88C82.301 25.88 82.8023 25.7733 83.1863 25.56C83.5916 25.3467 83.9116 24.9413 84.1463 24.344L84.5623 23.352L82.7063 19L77.9063 7H83.8903L86.3543 16.12L87.1223 19.512L88.0183 15.992L90.4823 7H95.8903ZM98.021 17.496C99.0236 17.496 99.8023 17.752 100.357 18.264C100.933 18.776 101.221 19.4907 101.221 20.408C101.221 21.304 100.933 22.008 100.357 22.52C99.8023 23.032 99.0236 23.288 98.021 23.288C97.0396 23.288 96.261 23.032 95.685 22.52C95.109 22.008 94.821 21.304 94.821 20.408C94.821 19.4907 95.109 18.776 95.685 18.264C96.261 17.752 97.0396 17.496 98.021 17.496Z" fill="white"/>
</svg>
