<svg width="22" height="17" viewBox="0 0 22 17" fill="none" xmlns="http://www.w3.org/2000/svg">
<path d="M20.8252 0.99707H1.32519C0.910351 0.99707 0.575195 1.3109 0.575195 1.69935V5.21076H21.5752V1.69935C21.5752 1.3109 21.24 0.99707 20.8252 0.99707ZM0.575195 15.745C0.575195 16.1334 0.910351 16.4473 1.32519 16.4473H20.8252C21.24 16.4473 21.5752 16.1334 21.5752 15.745V7.14203H0.575195V15.745ZM14.1455 11.7069C14.1455 11.6103 14.2299 11.5313 14.333 11.5313H18.2002C18.3033 11.5313 18.3877 11.6103 18.3877 11.7069V13.287C18.3877 13.3836 18.3033 13.4626 18.2002 13.4626H14.333C14.2299 13.4626 14.1455 13.3836 14.1455 13.287V11.7069Z" fill="#025440"/>
</svg>
