<svg width="8" height="8" viewBox="0 0 8 8" fill="none" xmlns="http://www.w3.org/2000/svg">
<path d="M4.08035 0.841853C4.0468 0.819528 4.0074 0.807617 3.96711 0.807617C3.92681 0.807617 3.88741 0.819528 3.85386 0.841853L0.7877 2.88599C0.751212 2.91033 0.723516 2.94575 0.708703 2.98703C0.693891 3.02831 0.692748 3.07326 0.705442 3.11524C0.718137 3.15722 0.743996 3.194 0.7792 3.22015C0.814405 3.24631 0.857088 3.26045 0.900944 3.26048H1.66748V6.12228H1.30977C1.25555 6.12228 1.20356 6.14381 1.16523 6.18215C1.12689 6.22048 1.10535 6.27248 1.10535 6.32669C1.10535 6.38091 1.12689 6.4329 1.16523 6.47124C1.20356 6.50957 1.25555 6.53111 1.30977 6.53111H6.62445C6.67866 6.53111 6.73065 6.50957 6.76899 6.47124C6.80732 6.4329 6.82886 6.38091 6.82886 6.32669C6.82886 6.27248 6.80732 6.22048 6.76899 6.18215C6.73065 6.14381 6.67866 6.12228 6.62445 6.12228H6.26673V3.26048H7.03327C7.07712 3.26045 7.11981 3.24631 7.15501 3.22015C7.19022 3.194 7.21608 3.15722 7.22877 3.11524C7.24146 3.07326 7.24032 3.02831 7.22551 2.98703C7.2107 2.94575 7.183 2.91033 7.14651 2.88599L4.08035 0.841853ZM5.7557 3.26048V6.12228H5.24467V3.26048H5.7557ZM4.73365 3.26048V6.12228H4.22262V3.26048H4.73365ZM3.71159 3.26048V6.12228H3.20057V3.26048H3.71159ZM2.68954 3.26048V6.12228H2.17851V3.26048H2.68954ZM3.96711 2.44282C3.85868 2.44282 3.75469 2.39975 3.67803 2.32308C3.60136 2.24641 3.55828 2.14242 3.55828 2.034C3.55828 1.92557 3.60136 1.82158 3.67803 1.74491C3.75469 1.66824 3.85868 1.62517 3.96711 1.62517C4.07553 1.62517 4.17952 1.66824 4.25619 1.74491C4.33286 1.82158 4.37593 1.92557 4.37593 2.034C4.37593 2.14242 4.33286 2.24641 4.25619 2.32308C4.17952 2.39975 4.07553 2.44282 3.96711 2.44282ZM0.900944 6.93993C0.846731 6.93993 0.794738 6.96147 0.756404 6.99981C0.718069 7.03814 0.696533 7.09014 0.696533 7.14435C0.696533 7.19856 0.718069 7.25056 0.756404 7.28889C0.794738 7.32723 0.846731 7.34876 0.900944 7.34876H7.03327C7.08748 7.34876 7.13947 7.32723 7.17781 7.28889C7.21614 7.25056 7.23768 7.19856 7.23768 7.14435C7.23768 7.09014 7.21614 7.03814 7.17781 6.99981C7.13947 6.96147 7.08748 6.93993 7.03327 6.93993H0.900944Z" fill="white"/>
</svg>
